<svg width="329" height="143" viewBox="0 0 329 143" fill="none" xmlns="http://www.w3.org/2000/svg">
<path fill-rule="evenodd" clip-rule="evenodd" d="M327.858 133.74C329 130.984 329 127.489 329 120.5V22.5C329 15.5109 329 12.0163 327.858 9.25975C326.336 5.58433 323.416 2.66422 319.74 1.14181C316.984 0 313.489 0 306.5 0H61.5C58.0824 0 55.5003 0 53.4316 0.133505C52.1327 0.21733 51.4832 0.259243 51.3222 0.264434C50.7831 0.28181 51.2169 0.28181 50.6778 0.264434C50.5168 0.259243 49.8673 0.21733 48.5684 0.133505C46.4997 0 43.9176 0 40.5 0H22.5C15.5109 0 12.0163 0 9.25974 1.14181C5.58432 2.66422 2.66422 5.58433 1.14182 9.25975C0 12.0163 0 15.5109 0 22.5V25.5C0 32.4891 0 35.9837 1.14182 38.7402C2.66422 42.4157 5.58432 45.3358 9.25974 46.8582C12.0163 48 15.5109 48 22.5 48H24C28.6594 48 30.9891 48 32.8268 48.7612C35.2771 49.7761 37.2239 51.7229 38.2388 54.1732C39 56.0109 39 58.3406 39 63V120.5C39 127.489 39 130.984 40.1418 133.74C41.6642 137.416 44.5843 140.336 48.2597 141.858C51.0163 143 54.5109 143 61.5 143H306.5C313.489 143 316.984 143 319.74 141.858C323.416 140.336 326.336 137.416 327.858 133.74Z" fill="white"/>
</svg>
