<svg width="329" height="143" viewBox="0 0 329 143" fill="none" xmlns="http://www.w3.org/2000/svg">
<path fill-rule="evenodd" clip-rule="evenodd" d="M1.14181 133.74C0 130.984 0 127.489 0 120.5V22.5C0 15.5109 0 12.0163 1.14181 9.25975C2.66422 5.58433 5.58433 2.66422 9.25975 1.14181C12.0163 0 15.5109 0 22.5 0H267.5C270.918 0 273.5 0 275.568 0.133505C276.867 0.21733 277.517 0.259243 277.678 0.264434C278.217 0.28181 277.783 0.28181 278.322 0.264434C278.483 0.259243 279.133 0.21733 280.432 0.133505C282.5 0 285.082 0 288.5 0H306.5C313.489 0 316.984 0 319.74 1.14181C323.416 2.66422 326.336 5.58433 327.858 9.25975C329 12.0163 329 15.5109 329 22.5V25.5C329 32.4891 329 35.9837 327.858 38.7402C326.336 42.4157 323.416 45.3358 319.74 46.8582C316.984 48 313.489 48 306.5 48H305C300.341 48 298.011 48 296.173 48.7612C293.723 49.7761 291.776 51.7229 290.761 54.1732C290 56.0109 290 58.3406 290 63V120.5C290 127.489 290 130.984 288.858 133.74C287.336 137.416 284.416 140.336 280.74 141.858C277.984 143 274.489 143 267.5 143H22.5C15.5109 143 12.0163 143 9.25975 141.858C5.58433 140.336 2.66422 137.416 1.14181 133.74Z" fill="white"/>
</svg>
