<svg width="40" height="11" viewBox="0 0 40 11" fill="none" xmlns="http://www.w3.org/2000/svg">
<g clip-path="url(#clip0_991_67)">
<path d="M39.7856 9.90679C39.5527 10.117 39.192 10.1004 38.9798 9.86987C34.2355 4.71554 27.8531 1.7899 21.0081 1.63319C17.4919 1.55332 14.0207 2.193 10.6895 3.53639C7.72046 4.73438 4.9835 6.44621 2.5334 8.63422C3.60779 8.43757 4.71262 8.41496 5.80527 8.57319C6.11724 8.61839 6.33334 8.90546 6.28768 9.21437C6.24203 9.52328 5.95213 9.73651 5.64016 9.69206C4.01944 9.45774 2.30057 9.68603 0.800071 10.3355C0.590062 10.4267 0.344293 10.3837 0.178417 10.227C0.0117794 10.0703 -0.0430082 9.82994 0.0376472 9.61747C0.702674 7.87776 0.972793 6.07928 0.816808 4.41567C0.787894 4.10525 1.01845 3.82949 1.3327 3.80086C1.3502 3.79935 1.36846 3.79859 1.38596 3.79859C1.67739 3.79859 1.9262 4.0186 1.95359 4.31169C2.05936 5.44261 1.98784 6.62703 1.74663 7.81522C4.30021 5.53001 7.15739 3.74208 10.2588 2.49061C13.5406 1.1668 16.9547 0.496991 20.4168 0.496991C20.6223 0.496991 20.8285 0.499248 21.0339 0.50377C28.194 0.668021 34.8663 3.724 39.8228 9.10965C40.0359 9.33869 40.0192 9.69658 39.7856 9.90679Z" fill="#B8B8B8"/>
</g>
<defs>
<clipPath id="clip0_991_67">
<rect width="40" height="10" fill="white" transform="matrix(1 0 0 -1 0 10.4758)"/>
</clipPath>
</defs>
</svg>
