<svg width="39" height="36" viewBox="0 0 39 36" fill="none" xmlns="http://www.w3.org/2000/svg">
<path d="M19.8318 2.99993L23.2807 2.14279L24.5741 6.4285H31.0409L31.9032 10.2856L36.6455 28.7142L34.0588 33.8571C29.3164 33.9999 19.4006 34.3714 17.6761 34.7142C15.5205 35.1428 4.31134 32.9999 3.4491 32.9999C2.7593 32.9999 2.01202 27.2856 1.72461 24.4285L6.89808 11.9999V7.28565L14.2272 6.4285L15.5205 1.28564L19.8318 2.99993Z" fill="#FCCD71"/>
<path d="M33.112 11.4365V9.26922C33.112 7.20596 31.4955 5.52737 29.5087 5.52737H25.2985C25.4318 5.13695 25.5051 4.71732 25.5051 4.28006C25.5051 2.2168 23.8887 0.538208 21.9018 0.538208C20.9796 0.538208 20.1376 0.900238 19.4997 1.49401C18.8616 0.900238 18.0197 0.538208 17.0975 0.538208C15.1107 0.538208 13.4943 2.2168 13.4943 4.28006C13.4943 4.71724 13.5675 5.13695 13.7009 5.52737H9.49065C7.50381 5.52737 5.88738 7.20596 5.88738 9.26922V11.4365C2.5231 17.633 1.08301 22.9719 1.08301 29.2258C1.08301 32.6645 3.77702 35.4622 7.08842 35.4622H31.9109C35.2223 35.4622 37.9163 32.6645 37.9163 29.2258C37.9163 22.9719 36.4762 17.633 33.112 11.4365ZM21.9018 3.03282C22.5641 3.03282 23.1029 3.59238 23.1029 4.28013C23.1029 4.96789 22.5641 5.52744 21.9018 5.52744C21.2395 5.52744 20.7007 4.96789 20.7007 4.28013C20.7007 3.59238 21.2395 3.03282 21.9018 3.03282ZM17.0975 3.03282C17.7598 3.03282 18.2986 3.59238 18.2986 4.28013C18.2986 4.96789 17.7598 5.52744 17.0975 5.52744C16.4352 5.52744 15.8964 4.96789 15.8964 4.28013C15.8964 3.59238 16.4352 3.03282 17.0975 3.03282ZM8.28954 9.26922C8.28954 8.58146 8.82837 8.02191 9.49065 8.02191H29.5087C30.171 8.02191 30.7098 8.58146 30.7098 9.26922V10.5165H8.28954V9.26922ZM31.9109 32.9676H7.08842C5.10158 32.9676 3.48516 31.289 3.48516 29.2258C3.48516 23.4694 4.73821 18.7244 7.79042 13.0111H31.2088C34.2611 18.7244 35.5141 23.4694 35.5141 29.2258C35.5142 31.289 33.8978 32.9676 31.9109 32.9676Z" fill="#333333"/>
<path fill-rule="evenodd" clip-rule="evenodd" d="M13.2238 4.27981C13.2238 2.06123 14.9614 0.256714 17.0979 0.256714C18.0048 0.256714 18.8396 0.58251 19.5 1.12606C20.1603 0.582496 20.9953 0.256714 21.9022 0.256714C24.0386 0.256714 25.7763 2.06123 25.7763 4.27981C25.7763 4.61276 25.7367 4.9363 25.6627 5.24587H29.509C31.6455 5.24587 33.3831 7.05038 33.3831 9.26897V11.3625C36.7422 17.5681 38.1875 22.9387 38.1874 29.2255C38.1874 32.8196 35.3722 35.7432 31.9112 35.7432H7.08875C3.62777 35.7432 0.8125 32.8196 0.8125 29.2255C0.8125 22.9387 2.25776 17.5681 5.61688 11.3625V9.26897C5.61688 7.05038 7.35456 5.24587 9.49098 5.24587H13.3373C13.2633 4.93626 13.2238 4.61269 13.2238 4.27981ZM17.0979 0.819214C15.2606 0.819214 13.7654 2.37189 13.7654 4.27981C13.7654 4.68415 13.8331 5.07209 13.9564 5.43309L14.0847 5.80837H9.49098C7.65371 5.80837 6.15854 7.36105 6.15854 9.26897V11.51L6.12363 11.5744C2.77909 17.7346 1.35417 23.0263 1.35417 29.2255C1.35417 32.509 3.92692 35.1807 7.08875 35.1807H31.9112C35.073 35.1807 37.6458 32.509 37.6458 29.2255C37.6458 23.0263 36.2209 17.7345 32.8764 11.5744L32.8415 11.51V9.26897C32.8415 7.36105 31.3463 5.80837 29.509 5.80837H24.9154L25.0435 5.43313C25.1668 5.07207 25.2346 4.68419 25.2346 4.27981C25.2346 2.37189 23.7394 0.819214 21.9022 0.819214C21.0495 0.819214 20.2712 1.15365 19.6808 1.7032L19.5 1.87145L19.3193 1.70322C18.7287 1.15364 17.9505 0.819214 17.0979 0.819214ZM17.0979 3.31383C16.5851 3.31383 16.1676 3.74747 16.1676 4.27989C16.1676 4.81231 16.5851 5.24595 17.0979 5.24595C17.6106 5.24595 18.0281 4.81231 18.0281 4.27989C18.0281 3.74747 17.6106 3.31383 17.0979 3.31383ZM15.6259 4.27989C15.6259 3.43681 16.286 2.75133 17.0979 2.75133C17.9097 2.75133 18.5698 3.43681 18.5698 4.27989C18.5698 5.12297 17.9097 5.80845 17.0979 5.80845C16.286 5.80845 15.6259 5.12297 15.6259 4.27989ZM21.9022 3.31383C21.3895 3.31383 20.9719 3.74747 20.9719 4.27989C20.9719 4.81231 21.3895 5.24595 21.9022 5.24595C22.4149 5.24595 22.8324 4.81231 22.8324 4.27989C22.8324 3.74747 22.4149 3.31383 21.9022 3.31383ZM20.4302 4.27989C20.4302 3.43681 21.0903 2.75133 21.9022 2.75133C22.714 2.75133 23.3741 3.43681 23.3741 4.27989C23.3741 5.12297 22.714 5.80845 21.9022 5.80845C21.0903 5.80845 20.4302 5.12297 20.4302 4.27989ZM9.49098 8.30291C8.97827 8.30291 8.5607 8.73655 8.5607 9.26897V10.235H30.4393V9.26897C30.4393 8.73655 30.0217 8.30291 29.509 8.30291H9.49098ZM8.01903 9.26897C8.01903 8.42589 8.67912 7.74042 9.49098 7.74042H29.509C30.3209 7.74042 30.981 8.42589 30.981 9.26897V10.7975H8.01903V9.26897ZM7.63128 12.7296H31.3686L31.4459 12.8745C34.5176 18.624 35.7853 23.4157 35.7853 29.2255C35.7854 31.4441 34.0477 33.2486 31.9113 33.2486H7.08875C4.95233 33.2486 3.21465 31.4441 3.21465 29.2255C3.21465 23.4156 4.48229 18.624 7.55391 12.8745L7.63128 12.7296ZM7.95049 13.2921C4.97378 18.9043 3.75632 23.5712 3.75632 29.2255C3.75632 31.1335 5.25149 32.6861 7.08875 32.6861H31.9113C33.7485 32.6861 35.2437 31.1335 35.2436 29.2255C35.2436 23.5713 34.0262 18.9043 31.0494 13.2921H7.95049Z" fill="#333333"/>
</svg>
