<svg width="38" height="38" viewBox="0 0 38 38" fill="none" xmlns="http://www.w3.org/2000/svg">
<rect x="2" y="2" width="34" height="35" fill="#FCCD71"/>
<path d="M32.479 38H5.5213C2.60017 38 0.223511 35.6001 0.223511 32.6502V5.34993C0.223511 2.39994 2.60017 4.76837e-07 5.5213 4.76837e-07H32.479C35.4001 4.76837e-07 37.7765 2.39994 37.7765 5.34993V32.6502C37.7765 35.6001 35.4 38 32.479 38ZM11.3933 11.3182V17.8862H26.6071V11.3182H11.3933ZM27.8704 20.2611C27.8452 20.2627 27.8202 20.2649 27.7946 20.2649C27.7691 20.2649 27.7441 20.2627 27.7189 20.2611H20.1878V26.8293H35.4017V20.2611H27.8704ZM11.3933 29.2043V35.625H26.6071V29.2043H11.3933ZM17.8126 26.8293V20.2611H10.2816C10.2565 20.2627 10.2314 20.2649 10.2059 20.2649C10.1803 20.2649 10.1553 20.2627 10.1301 20.2611H2.59851V26.8293H17.8126ZM2.59851 17.8861H9.01837V11.3181H2.59851V17.8861ZM28.9821 17.8861H35.4017V11.3181H28.9821V17.8861ZM35.4015 32.6502V29.2042H28.9821V35.625H32.479C34.0904 35.625 35.4015 34.2906 35.4015 32.6502ZM5.5213 35.625H9.01825V29.2043H2.59851V32.6502C2.59851 34.2906 3.90963 35.625 5.5213 35.625ZM2.59851 5.34993V8.94318H17.8126V2.375H5.5213C3.90963 2.375 2.59851 3.70951 2.59851 5.34993ZM32.479 2.375H20.1876V8.94318H35.4015V5.34993C35.4015 3.70951 34.0904 2.375 32.479 2.375Z" fill="black"/>
</svg>
