<svg width="38" height="38" viewBox="0 0 38 38" fill="none" xmlns="http://www.w3.org/2000/svg">
<g clip-path="url(#clip0_991_266)">
<path d="M1.72754 4.31812H36.273V33.6817H1.72754V4.31812Z" fill="#FCCD71"/>
<path d="M36.7608 2.8913H1.23916C0.554785 2.8913 0 3.44608 0 4.13038V33.8695C0 34.5538 0.554785 35.1087 1.23916 35.1087H36.7609C37.4452 35.1087 38.0001 34.5539 38.0001 33.8695V4.13038C38 3.44608 37.4452 2.8913 36.7608 2.8913ZM17.3478 5.36953H28.087V10.3261H17.3478V5.36953ZM20.6522 17.7608H9.91303V12.8042H20.6522V17.7608ZM28.087 20.2391V25.1957H17.3478V20.2391H28.087ZM2.47824 5.36953H14.8696V10.3261H2.47824V5.36953ZM2.47824 12.8043H7.43479V17.7609H2.47824V12.8043ZM2.47824 20.2391H14.8696V25.1957H2.47824V20.2391ZM7.43479 32.6304H2.47824V27.6739H7.43479V32.6304ZM20.6522 32.6304H9.91303V27.6739H20.6522V32.6304ZM35.5218 32.6304H23.1304V27.6739H35.5218V32.6304ZM35.5218 25.1956H30.5652V20.239H35.5218V25.1956ZM35.5218 17.7608H23.1304V12.8042H35.5218V17.7608ZM35.5218 10.326H30.5652V5.36953H35.5218V10.326Z" fill="#333333"/>
</g>
<defs>
<clipPath id="clip0_991_266">
<rect width="38" height="38" fill="white"/>
</clipPath>
</defs>
</svg>
