<svg width="38" height="38" viewBox="0 0 38 38" fill="none" xmlns="http://www.w3.org/2000/svg">
<path d="M2 13H38L37 25.5L27.5 35L2 36V13Z" fill="#FCCD71"/>
<path d="M26.2274 4.02362V1.78833H23.5451V4.02362H14.4549V1.78833H11.7726V4.02362H0V36.2119H28.2732L38 26.485V4.02362H26.2274ZM11.7726 6.70598V8.94127H14.4549V6.70598H23.5452V8.49421H26.2275V6.70598H35.3176V11.1766H2.68235V6.70598H11.7726ZM2.68235 13.8589H35.3176V24.5883H26.3765V33.5295H2.68235V13.8589ZM33.421 27.2707L29.0588 31.6328V27.2707H33.421Z" fill="black"/>
<path d="M13.1882 25.4824H8.71765V29.953H13.1882V25.4824Z" fill="black"/>
<path d="M21.2354 25.4824H16.7648V29.953H21.2354V25.4824Z" fill="black"/>
<path d="M21.2354 17.4353H16.7648V21.9059H21.2354V17.4353Z" fill="black"/>
<path d="M29.2824 17.4353H24.8118V21.9059H29.2824V17.4353Z" fill="black"/>
<path d="M13.1882 17.4353H8.71765V21.9059H13.1882V17.4353Z" fill="black"/>
</svg>
