<svg width="52" height="52" viewBox="0 0 52 52" fill="none" xmlns="http://www.w3.org/2000/svg">
<path d="M32.5 32.5H42.25V29.25H32.5V32.5Z" fill="white"/>
<path d="M39 45.5H48.75V42.25H39V45.5Z" fill="white"/>
<path d="M35.75 39H45.5V35.75H35.75V39Z" fill="white"/>
<path d="M27.6301 32.5C27.6186 31.1288 27.2527 29.7839 26.5681 28.5958C25.8836 27.4077 24.9035 26.4167 23.723 25.719L35.7504 4.875L32.9377 3.25L20.627 24.5798C19.1159 24.242 17.5442 24.2886 16.0557 24.7153C14.5672 25.1419 13.2095 25.935 12.1067 27.022C6.02333 32.89 6.49442 46.6084 6.51668 47.19C6.53348 47.6096 6.71207 48.0064 7.01501 48.2973C7.31796 48.5881 7.72173 48.7503 8.14168 48.75H32.5024C32.8434 48.75 33.1759 48.6427 33.4525 48.4433C33.7292 48.2439 33.9361 47.9624 34.044 47.6389C34.1518 47.3153 34.1552 46.966 34.0535 46.6405C33.9518 46.3149 33.7502 46.0296 33.4774 45.825C27.7254 41.5088 27.6301 32.5873 27.6301 32.5ZM19.3867 27.6203C20.6873 27.6345 21.9323 28.1497 22.8628 29.0586C23.7932 29.9675 24.3374 31.2001 24.3821 32.5C24.3821 32.5619 24.3852 32.838 24.4094 33.2618L14.8229 28.9984C15.4543 28.4778 16.1829 28.0878 16.9664 27.8512C17.7499 27.6146 18.5726 27.5361 19.3867 27.6203ZM25.1057 45.5C23.8072 44.1773 22.9796 42.4643 22.7504 40.625H19.5004C19.617 42.3545 20.1574 44.0288 21.0741 45.5H17.4612C16.7929 43.3911 16.3862 41.2081 16.2504 39H13.0004C13.1053 41.2015 13.4681 43.3831 14.0814 45.5H9.75043C9.8008 42.5159 10.2217 35.9253 12.6798 31.6019L24.9209 37.0456C25.5097 40.0995 26.7642 42.986 28.5952 45.5H25.1057Z" fill="white"/>
</svg>
