<svg width="34" height="44" viewBox="0 0 34 44" fill="none" xmlns="http://www.w3.org/2000/svg">
<path d="M0.398438 0.720215V43.2797H33.6016V11.5231L33.1022 11.034L23.1413 1.21257L22.6452 0.720215H0.398438ZM3.71875 3.99402H20.3203V13.8155H30.2812V40.0059H3.71875V3.99402ZM23.6406 6.28633L27.9564 10.5416H23.6406V6.28633ZM7.03906 10.5416V13.8155H17V10.5416H7.03906ZM7.03906 17.0893V20.3631H26.9609V17.0893H7.03906ZM12.8496 22C11.3555 22 10.1934 22.9834 9.5293 24.1292C8.86523 25.2751 8.69922 26.7476 8.69922 28.3845C8.69922 29.3667 9.03255 30.3469 9.19856 31.3291C8.5345 31.4927 7.86914 31.9845 7.03906 31.9845V35.2583C8.20117 35.2583 9.36328 35.0965 10.3594 34.7691C10.5254 35.0965 10.5267 35.2602 10.8587 35.5876C11.5228 36.2423 12.5176 36.7321 13.6797 36.7321C16.3359 36.7321 17.9974 34.9309 19.1595 33.6214C19.3255 33.294 19.4896 33.1297 19.6556 32.966C19.6556 33.1297 19.655 33.2946 19.821 33.4583C19.987 33.7857 20.1536 34.1124 20.4857 34.4398C20.8177 34.7672 21.4824 35.0952 21.9805 35.0952C22.9766 35.0952 23.6393 34.4411 23.9714 34.1137C24.3034 33.7863 24.638 33.2933 24.97 32.966C25.6341 32.3112 26.1315 31.8214 26.7956 31.8214V28.5476C24.8034 28.5476 23.3099 29.6947 22.4798 30.6769C22.4798 30.5132 22.4772 30.3482 22.3112 30.1845C22.1452 29.8571 21.9818 29.531 21.6497 29.0399C21.3177 28.5489 20.8184 28.5476 20.3203 28.5476C18.9922 28.5476 18.4935 29.3673 17.9954 29.8584C17.4974 30.3495 17.0013 31.0036 16.6693 31.6584C15.6732 32.8042 15.0078 33.4583 13.6797 33.4583C13.5137 33.4583 13.515 33.2953 13.349 33.2953C13.515 33.2953 13.5137 33.1322 13.6797 33.1322C15.5059 31.659 17 29.6928 17 27.0737C17 25.7642 16.6686 24.619 16.0046 23.6369C15.3405 22.6547 14.1777 22 12.8496 22ZM12.6842 25.2738C13.1823 25.2738 13.1829 25.2725 13.349 25.5999C13.515 25.9273 13.6797 26.4183 13.6797 27.2368C13.6797 28.2189 13.1803 29.203 12.3503 30.0215C12.3503 29.5304 12.0195 28.875 12.0195 28.5476C12.0195 27.2381 12.1868 26.2572 12.5189 25.7661C12.6849 25.4388 12.6842 25.2738 12.6842 25.2738Z" fill="white"/>
</svg>
