<svg width="36" height="40" viewBox="0 0 36 40" fill="none" xmlns="http://www.w3.org/2000/svg">
<path d="M5.31783 14L17.9996 3.20001L31.9087 16.8V29.6L20.8633 38.4L6.95419 33.6L2.86328 24.4L5.31783 14Z" fill="#FCCD71"/>
<path fill-rule="evenodd" clip-rule="evenodd" d="M16.8274 1.17194C17.4815 0.547584 18.5189 0.547584 19.173 1.17195L30.1015 11.6043L30.1138 11.6162C32.4592 13.9012 34.0523 16.8033 34.6841 19.9616C35.316 23.1203 34.9564 26.386 33.6531 29.3468C32.3501 32.3067 30.1647 34.8247 27.3799 36.5912C24.5956 38.3574 21.3327 39.2963 18.0002 39.2963C14.6677 39.2963 11.4048 38.3574 8.62053 36.5913C5.83566 34.8247 3.65033 32.3067 2.34734 29.3469C1.04406 26.3861 0.684392 23.1203 1.31627 19.9616C1.9481 16.8033 3.54121 13.9012 5.88655 11.6162L5.89887 11.6043L16.8274 1.17194ZM8.25075 13.995C6.38239 15.8176 5.12517 18.1188 4.62726 20.6077C4.12893 23.0988 4.41153 25.6758 5.44247 28.0178C6.47373 30.3604 8.21071 32.3697 10.4444 33.7866C12.6786 35.2038 15.3072 35.9629 18.0002 35.9629C20.6931 35.9629 23.3217 35.2038 25.556 33.7866C27.7897 32.3697 29.5267 30.3604 30.558 28.0178C31.5889 25.6757 31.8714 23.0988 31.3731 20.6077C30.8753 18.1188 29.6181 15.8176 27.7497 13.9951L18.0002 4.68825L8.25075 13.995Z" fill="#333333"/>
</svg>
