<svg width="28" height="30" viewBox="0 0 28 30" fill="none" xmlns="http://www.w3.org/2000/svg">
<path fill-rule="evenodd" clip-rule="evenodd" d="M5.375 5.5C5.375 2.80761 7.5576 0.625 10.25 0.625C11.7578 0.625 13.1057 1.30955 14 2.38483C14.8943 1.30955 16.2422 0.625 17.75 0.625C20.4424 0.625 22.625 2.80761 22.625 5.5C22.625 6.46648 22.3438 7.36727 21.8587 8.125H23C25.2782 8.125 27.125 9.97183 27.125 12.25V15.25C27.125 16.4563 26.3114 17.4724 25.2031 17.7797C25.4192 20.5196 25.2939 23.2775 24.8293 25.9896C24.5518 27.6091 23.2364 28.8498 21.6035 29.0322L20.2317 29.1855C16.0901 29.6483 11.9099 29.6483 7.76822 29.1855L6.39651 29.0322C4.76358 28.8498 3.44828 27.6091 3.17078 25.9896C2.70603 23.2775 2.58086 20.5196 2.79697 17.7797C1.6886 17.4724 0.875 16.4563 0.875 15.25V12.25C0.875 9.97183 2.72183 8.125 5 8.125H6.14137C5.65625 7.36727 5.375 6.46648 5.375 5.5ZM12.875 5.5C12.875 4.05025 11.6997 2.875 10.25 2.875C8.80025 2.875 7.625 4.05025 7.625 5.5C7.625 6.94975 8.80025 8.125 10.25 8.125C11.6997 8.125 12.875 6.94975 12.875 5.5ZM17.75 8.125C19.1998 8.125 20.375 6.94975 20.375 5.5C20.375 4.05025 19.1998 2.875 17.75 2.875C16.3003 2.875 15.125 4.05025 15.125 5.5C15.125 6.94975 16.3003 8.125 17.75 8.125ZM3.125 12.25C3.125 11.2145 3.96446 10.375 5 10.375H12.875V15.625H3.5C3.2929 15.625 3.125 15.4572 3.125 15.25V12.25ZM15.125 17.875H22.9535C23.1639 20.4559 23.0493 23.0545 22.6115 25.6096C22.5033 26.2411 21.9903 26.725 21.3536 26.7961L19.9818 26.9494C18.3674 27.1299 16.7468 27.2371 15.125 27.271V17.875ZM15.125 15.625H24.5C24.7071 15.625 24.875 15.4572 24.875 15.25V12.25C24.875 11.2145 24.0356 10.375 23 10.375H15.125V15.625ZM12.875 17.875V27.271C11.2532 27.2371 9.63263 27.1299 8.01813 26.9494L6.64643 26.7961C6.00962 26.725 5.49668 26.2411 5.38845 25.6096C4.95062 23.0545 4.83611 20.4559 5.04655 17.875H12.875Z" fill="white"/>
</svg>
