<svg width="46" height="46" viewBox="0 0 46 46" fill="none" xmlns="http://www.w3.org/2000/svg">
<g clip-path="url(#clip0_991_909)">
<path d="M37.5594 13.7698L40.2245 11.1047L34.8943 5.77454L32.2291 8.43949L23.7896 0L10.464 13.3256L16.6826 19.5442L2.02455 34.2022C-0.669688 36.8964 -0.669598 41.2801 2.02455 43.9744C4.49014 46.44 8.87021 46.9008 11.7967 43.9744L26.4547 29.3162L32.6734 35.5349L45.9989 22.2093L37.5594 13.7698ZM9.13139 41.3092C7.90673 42.5336 5.91426 42.5338 4.68941 41.3092C3.46484 40.0846 3.46484 38.092 4.68941 36.8673L19.3475 22.2092L23.7893 26.651L9.13139 41.3092ZM32.6732 30.2047L15.7942 13.3257L23.7896 5.33035L40.6686 22.2093L32.6732 30.2047Z" fill="white"/>
</g>
<defs>
<clipPath id="clip0_991_909">
<rect width="46" height="46" fill="white"/>
</clipPath>
</defs>
</svg>
