<svg width="59" height="59" viewBox="0 0 59 59" fill="none" xmlns="http://www.w3.org/2000/svg">
<path d="M35.6074 12.8486C34.5847 12.8558 33.5692 12.9062 32.4961 13.1943C31.423 13.4824 30.3499 13.9433 29.2119 14.6923C27.8003 13.8641 26.4319 13.1799 25.1211 13.0214C23.4934 12.8198 21.981 12.9278 20.2236 12.9638C18.1422 13.007 16.781 14.0729 14.5771 14.9228C12.3733 15.7727 9.53564 16.5937 5.53125 16.5937H3.6875V34.3398L4.72461 34.8583L8.12402 36.5292L20.2236 50.0117L20.2812 50.0693C21.6641 51.4377 23.5294 51.7762 25.1787 51.6826C26.828 51.5889 28.3765 51.1064 29.6152 50.3574C32.3376 48.7153 39.7559 43.5585 39.7559 43.5585L39.9287 43.4433L40.0439 43.3281C40.9226 42.4566 41.3619 41.3907 41.6572 40.2744L48.7441 36.7021L54.0449 34.916L55.3125 34.5126V16.5937H53.4688C49.4716 16.5937 46.6267 15.7294 44.4229 14.8652C42.219 14.0009 40.8794 12.9494 38.7764 12.9062C37.6528 12.8846 36.6301 12.8414 35.6074 12.8486ZM35.665 16.5361C36.4933 16.5289 37.4512 16.5721 38.6611 16.5937C38.8556 16.6009 40.6273 17.3571 43.0977 18.3222C45.1863 19.1433 48.0887 19.8707 51.625 20.1083V31.8622L47.3613 33.3027H47.2461L47.1309 33.3603L41.542 36.1835C41.2323 35.3409 40.8074 34.5631 40.1592 33.8789L40.0439 33.706L32.208 24.0839L31.0557 22.6435L29.6152 23.7958L24.6602 27.829C22.9965 28.9814 21.6497 28.6501 20.2812 28.0019C19.8851 27.8146 19.9067 27.757 19.5898 27.541L28.002 20.5693L28.1172 20.454C30.6163 17.9765 32.1504 17.1195 33.4756 16.7665C34.1382 16.5865 34.8368 16.5433 35.665 16.5361ZM22.8164 16.5937C23.5222 16.5793 24.1128 16.5865 24.6602 16.6513C25.1427 16.7089 25.6901 17.1195 26.1582 17.2851C25.9709 17.458 25.8341 17.5588 25.6396 17.746C25.5964 17.7893 25.5676 17.8181 25.5244 17.8613L15.4414 26.2158L13.8857 27.4833L15.2686 28.9238C15.2686 28.9238 16.601 30.3642 18.668 31.3437C20.735 32.3232 23.9255 32.8778 26.792 30.8828L26.9072 30.7675L30.4795 27.829L37.2783 36.1835L37.3359 36.2988L37.3936 36.3564C38.6107 37.5591 38.5819 39.4533 37.3936 40.6777C37.3792 40.6921 37.408 40.7209 37.3936 40.7353C37.3792 40.7425 37.1343 40.8865 37.1055 40.9081L34.6855 37.624L31.6895 39.8134L34.0518 42.9824C33.0939 43.6306 32.6617 43.9691 31.6318 44.6533L29.1543 41.3115L26.1582 43.5009L28.5205 46.6699C28.3116 46.7995 27.8795 47.0876 27.7139 47.1884C27.1305 47.5413 26.007 47.9374 25.0059 47.9951C24.0624 48.0455 23.3422 47.8294 22.9893 47.5341L22.9316 47.4765L10.6016 33.8212L10.3711 33.5331L7.375 32.0351V20.1083C10.8969 19.8779 13.8209 19.1793 15.9023 18.3798C18.3655 17.4363 20.1228 16.6585 20.3389 16.6513C21.2823 16.6297 22.1106 16.6081 22.8164 16.5937Z" fill="#FCCD71"/>
</svg>
