<svg width="38" height="38" viewBox="0 0 38 38" fill="none" xmlns="http://www.w3.org/2000/svg">
<path d="M11.5 2.5L36.5 1V21L28 32.5L15.5 34.5L6 27.5L3.5 14L11.5 2.5Z" fill="#FCCD71"/>
<path d="M19.605 0.0098858L19.5737 0.0102589C14.9181 0.117044 10.5429 1.98705 7.25422 5.27585C0.56489 11.9651 0.247984 22.6504 6.30323 29.7186L0 36.0216L1.97837 38L8.28132 31.6971C11.5413 34.4948 15.6478 36.021 19.9892 36.021C24.7995 36.021 29.3227 34.1474 32.7241 30.746C36.0118 27.4584 37.8817 23.0843 37.9896 18.4297L38 0L19.605 0.0098858ZM35.1922 18.3802C35.0974 22.3065 33.5187 25.9946 30.7458 28.7675C27.8726 31.6407 24.0525 33.223 19.9892 33.223C16.3959 33.223 12.9932 31.9847 10.2669 29.7114L13.4389 26.5394H27.3678V23.7415H16.237L19.3743 20.6042H27.3679V17.8063H22.1722L27.0381 12.9403L25.0598 10.962L20.1938 15.8279V10.6322H17.3959V18.6258L14.2586 21.7631V10.6322H11.4607V24.561L8.28934 27.7324C3.32107 21.7621 3.6348 12.8519 9.2325 7.25422C12.0064 4.48041 15.6957 2.90167 19.6226 2.80775L35.2006 2.79936L35.1922 18.3802Z" fill="#333333"/>
</svg>
