<svg width="26" height="26" viewBox="0 0 26 26" fill="none" xmlns="http://www.w3.org/2000/svg">
<path d="M7.68174 12.9999C7.68174 12.3473 7.1526 11.8181 6.49992 11.8181H1.77264C1.11996 11.8181 0.59082 12.3473 0.59082 12.9999C0.59082 13.6526 1.11996 14.1818 1.77264 14.1818H6.49992C7.1526 14.1818 7.68174 13.6526 7.68174 12.9999Z" fill="#25C66F"/>
<path d="M24.2271 11.8181H21.8635C21.2108 11.8181 20.6816 12.3473 20.6816 12.9999C20.6816 13.6526 21.2108 14.1818 21.8635 14.1818H24.2271C24.8798 14.1818 25.4089 13.6526 25.4089 12.9999C25.4089 12.3473 24.8798 11.8181 24.2271 11.8181Z" fill="#25C66F"/>
<path d="M13.591 7.09091C14.2437 7.09091 14.7728 6.56177 14.7728 5.90909V1.18182C14.7728 0.529139 14.2437 0 13.591 0C12.9383 0 12.4092 0.529139 12.4092 1.18182V5.90909C12.4092 6.56177 12.9383 7.09091 13.591 7.09091Z" fill="#25C66F"/>
<path d="M13.591 18.9092C12.9383 18.9092 12.4092 19.4383 12.4092 20.091V24.8183C12.4092 25.4709 12.9383 26.0001 13.591 26.0001C14.2437 26.0001 14.7728 25.4709 14.7728 24.8183V20.091C14.7728 19.4383 14.2437 18.9092 13.591 18.9092Z" fill="#25C66F"/>
<path d="M6.07022 3.80755C5.60883 3.34601 4.86051 3.34609 4.39889 3.80755C3.93735 4.26909 3.93735 5.01734 4.39889 5.47888L7.74162 8.82169C7.97239 9.05246 8.27486 9.16788 8.57725 9.16788C8.87963 9.16788 9.18218 9.05246 9.41287 8.82177C9.87441 8.36023 9.87441 7.61198 9.41287 7.15044L6.07022 3.80755Z" fill="#25C66F"/>
<path d="M19.4403 17.1786C18.9788 16.7172 18.2305 16.7172 17.769 17.1786C17.3074 17.6402 17.3075 18.3884 17.769 18.8499L21.1118 22.1926C21.3425 22.4234 21.645 22.5387 21.9475 22.5387C22.2499 22.5387 22.5524 22.4233 22.7831 22.1926C23.2446 21.7311 23.2446 20.9828 22.7831 20.5213L19.4403 17.1786Z" fill="#25C66F"/>
<path d="M7.74154 17.1784L4.39889 20.5211C3.93735 20.9826 3.93735 21.7309 4.39889 22.1924C4.62966 22.4232 4.93213 22.5385 5.23459 22.5385C5.53706 22.5385 5.83953 22.4232 6.07022 22.1924L9.41287 18.8498C9.87441 18.3882 9.87441 17.64 9.41287 17.1784C8.95133 16.7169 8.203 16.7169 7.74154 17.1784Z" fill="#25C66F"/>
</svg>
