<svg width="24" height="24" viewBox="0 0 24 24" fill="none" xmlns="http://www.w3.org/2000/svg">
<path d="M0 12C0 5.37258 5.37258 0 12 0V0C18.6274 0 24 5.37258 24 12V12C24 18.6274 18.6274 24 12 24V24C5.37258 24 0 18.6274 0 12V12Z" fill="#25C66F"/>
<g clip-path="url(#clip0_1186_111)">
<path d="M16.7364 10.7632L11.9885 15.5107C11.6369 15.8624 11.0666 15.8624 10.7147 15.5107L8.26379 13.0596C7.91207 12.708 7.91207 12.1376 8.26379 11.7859C8.61558 11.4341 9.18586 11.4341 9.53749 11.7857L11.3518 13.6001L15.4625 9.48933C15.8143 9.13754 16.3846 9.13781 16.7363 9.48933C17.0879 9.84104 17.0879 10.4112 16.7364 10.7632Z" fill="white"/>
</g>
<defs>
<clipPath id="clip0_1186_111">
<rect width="9" height="9" fill="white" transform="translate(8 8)"/>
</clipPath>
</defs>
</svg>
