<svg width="26" height="26" viewBox="0 0 26 26" fill="none" xmlns="http://www.w3.org/2000/svg">
<path d="M20.8974 10.9493C20.9234 7.81625 18.2552 4.94433 14.9499 4.54675C14.8839 4.53917 14.8124 4.52725 14.7365 4.51425C14.5704 4.48244 14.4019 4.46433 14.2328 4.46008C13.5546 4.46008 13.3737 4.93675 13.326 5.2195C13.2794 5.49575 13.3239 5.72867 13.4571 5.90958C13.6814 6.214 14.0768 6.26817 14.3942 6.3115C14.4863 6.3245 14.574 6.33642 14.6477 6.35267C17.6182 7.01675 18.6181 8.06 19.1067 11.0056C19.1186 11.0771 19.124 11.1659 19.1305 11.2602C19.1522 11.6122 19.1955 12.3446 19.9831 12.3446C20.0481 12.3446 20.1196 12.3392 20.1933 12.3283C20.9256 12.2167 20.9029 11.5473 20.892 11.2255C20.8888 11.1345 20.8855 11.0489 20.8942 10.9915C20.8959 10.9771 20.8966 10.9626 20.8964 10.9482L20.8974 10.9493Z" fill="white"/>
<path d="M14.0402 3.39733C14.129 3.40383 14.2113 3.41033 14.2807 3.42008C19.1589 4.17083 21.4025 6.48158 22.0233 11.3978C22.0341 11.4812 22.0363 11.583 22.0373 11.6903C22.0438 12.0748 22.0568 12.8743 22.9148 12.8906H22.9408C23.2106 12.8906 23.424 12.8093 23.5778 12.649C23.8443 12.3706 23.827 11.9557 23.8108 11.622C23.8075 11.5397 23.8043 11.4627 23.8043 11.3945C23.8671 6.36783 19.5143 1.80808 14.4919 1.63908C14.4703 1.63908 14.4508 1.63908 14.4313 1.64233C14.4115 1.64483 14.3916 1.64591 14.3717 1.64558C14.3208 1.64558 14.2601 1.64125 14.194 1.63692C14.116 1.6315 14.0261 1.625 13.934 1.625C13.1345 1.625 12.9828 2.19375 12.9633 2.53283C12.9189 3.31608 13.6762 3.37133 14.0402 3.39733V3.39733ZM21.7882 17.7515C21.6835 17.6719 21.5799 17.591 21.4773 17.5088C20.9443 17.0798 20.3777 16.6855 19.8306 16.3031L19.4893 16.0648C18.7873 15.5718 18.1568 15.3324 17.561 15.3324C16.7572 15.3324 16.0573 15.7766 15.4788 16.6508C15.2232 17.0387 14.9123 17.2272 14.5298 17.2272C14.2642 17.2179 14.0036 17.1525 13.765 17.0354C11.5008 16.0084 9.88234 14.4333 8.95717 12.3543C8.50976 11.349 8.65492 10.6925 9.44142 10.1573C9.88884 9.854 10.7198 9.28958 10.6623 8.20733C10.5952 6.97992 7.88576 3.28467 6.74392 2.86542C6.25579 2.68736 5.72073 2.68583 5.23159 2.86108C3.91967 3.302 2.97934 4.07767 2.50809 5.10142C2.05309 6.09158 2.07476 7.254 2.56659 8.463C3.99117 11.9589 5.99317 15.0074 8.51842 17.5229C10.9895 19.9853 14.0272 22.0014 17.5458 23.517C17.8633 23.6535 18.1958 23.7282 18.4396 23.7824C18.5219 23.8008 18.5934 23.8171 18.6454 23.8312C18.674 23.8389 18.7035 23.8429 18.7332 23.8431H18.7613C20.4167 23.8431 22.4046 22.3308 23.0145 20.6072C23.5497 19.097 22.5725 18.3506 21.7882 17.7515V17.7515ZM14.7725 7.39158C14.4898 7.39808 13.8993 7.41325 13.6924 8.01342C13.5949 8.29508 13.6068 8.53775 13.7271 8.73817C13.9026 9.03067 14.2395 9.12167 14.545 9.1715C15.6554 9.34917 16.2263 9.96233 16.3401 11.1031C16.3932 11.6339 16.7518 12.0055 17.21 12.0055C17.2448 12.0054 17.2795 12.0033 17.314 11.999C17.8665 11.934 18.1341 11.5278 18.1103 10.7922C18.1189 10.0252 17.7181 9.15417 17.0345 8.46083C16.3498 7.76533 15.5243 7.37317 14.7725 7.39158V7.39158Z" fill="white"/>
</svg>
