<svg width="24" height="24" viewBox="0 0 24 24" fill="none" xmlns="http://www.w3.org/2000/svg">
<g clip-path="url(#clip0_815_836)">
<path d="M17.7589 13.7908C17.7121 13.7684 15.9624 12.9068 15.6515 12.7949C15.5246 12.7493 15.3886 12.7048 15.244 12.7048C15.0077 12.7048 14.8093 12.8225 14.6547 13.0538C14.4799 13.3136 13.9508 13.9321 13.7873 14.1168C13.766 14.1412 13.7368 14.1704 13.7194 14.1704C13.7037 14.1704 13.4329 14.0589 13.351 14.0232C11.4741 13.2079 10.0494 11.2474 9.85405 10.9167C9.82616 10.8692 9.82499 10.8476 9.82476 10.8476C9.83161 10.8224 9.89473 10.7592 9.9273 10.7265C10.0226 10.6322 10.1258 10.508 10.2257 10.3877C10.273 10.3308 10.3204 10.2737 10.3669 10.22C10.5119 10.0513 10.5764 9.92042 10.6512 9.76878L10.6904 9.69C10.873 9.32712 10.717 9.02089 10.6666 8.922C10.6252 8.83925 9.88647 7.05624 9.80792 6.86891C9.61904 6.41689 9.36946 6.20642 9.02263 6.20642C8.99044 6.20642 9.02263 6.20642 8.88766 6.21211C8.72333 6.21904 7.82839 6.33686 7.4327 6.58629C7.01309 6.85084 6.30322 7.69411 6.30322 9.17712C6.30322 10.5118 7.15024 11.7721 7.5139 12.2514C7.52294 12.2635 7.53953 12.288 7.56361 12.3232C8.95631 14.3571 10.6925 15.8645 12.4525 16.5676C14.1469 17.2444 14.9493 17.3226 15.4055 17.3226C15.4055 17.3226 15.4055 17.3226 15.4055 17.3226C15.5972 17.3226 15.7507 17.3076 15.886 17.2943L15.9719 17.2861C16.5572 17.2342 17.8436 16.5676 18.1362 15.7545C18.3667 15.1141 18.4274 14.4143 18.2741 14.1604C18.169 13.9877 17.988 13.9008 17.7589 13.7908Z" fill="white"/>
<path d="M12.213 0C5.71307 0 0.424969 5.24836 0.424969 11.6995C0.424969 13.786 0.983358 15.8284 2.04115 17.6159L0.0165014 23.5883C-0.0212129 23.6996 0.00683904 23.8227 0.0892027 23.9066C0.148657 23.9673 0.229307 24 0.31167 24C0.343229 24 0.375021 23.9952 0.406034 23.9854L6.63357 22.0064C8.33772 22.917 10.2638 23.3976 12.2131 23.3976C18.7124 23.3977 24 18.1498 24 11.6995C24 5.24836 18.7124 0 12.213 0ZM12.213 20.9606C10.3788 20.9606 8.60227 20.4309 7.07515 19.4289C7.0238 19.3951 6.96419 19.3778 6.90419 19.3778C6.87248 19.3778 6.84068 19.3826 6.80975 19.3925L3.69014 20.3841L4.6972 17.413C4.72977 17.3169 4.71349 17.2108 4.65349 17.1288C3.49058 15.5398 2.87585 13.6625 2.87585 11.6995C2.87585 6.59221 7.06448 2.43709 12.2129 2.43709C17.3608 2.43709 21.5489 6.59221 21.5489 11.6995C21.549 16.8061 17.3609 20.9606 12.213 20.9606Z" fill="white"/>
</g>
<defs>
<clipPath id="clip0_815_836">
<rect width="24" height="24" fill="white"/>
</clipPath>
</defs>
</svg>
