<svg width="26" height="26" viewBox="0 0 26 26" fill="none" xmlns="http://www.w3.org/2000/svg">
<path d="M12.9998 2C6.34982 2 1.04982 6.9 1.04982 12.95C1.04982 14.85 1.59982 16.65 2.49982 18.25C2.64982 18.5 2.69982 18.8 2.59982 19.1L1.04982 23.35C0.89982 23.75 1.29982 24.1 1.69982 24L5.99982 22.35C6.24982 22.25 6.54982 22.3 6.84982 22.45C8.64982 23.45 10.7998 24.05 13.0998 24.05C19.6498 24 24.9998 19.1 24.9998 13.05C24.9498 6.9 19.5998 2 12.9998 2ZM8.19982 14.8C8.04982 15.05 7.89982 15.3 7.69982 15.45C7.49982 15.6 7.24982 15.75 6.94982 15.85C6.69982 15.95 6.39982 15.95 6.09982 15.95C5.69982 15.95 5.34982 15.9 4.99982 15.75C4.64982 15.6 4.29982 15.4 4.04982 15.1L3.94982 15C3.89982 14.95 3.94982 14.85 4.04982 14.75L4.84982 14C4.94982 13.9 5.04982 13.9 5.09982 13.95C5.14982 14 5.19982 14.1 5.19982 14.1C5.29982 14.25 5.44982 14.35 5.59982 14.45C5.84982 14.6 6.09982 14.6 6.39982 14.55C6.49982 14.55 6.54982 14.5 6.64982 14.45C6.69982 14.4 6.74982 14.35 6.79982 14.3C6.84982 14.25 6.84982 14.15 6.84982 14.1C6.84982 13.9 6.79982 13.85 6.74982 13.8C6.64982 13.7 6.49982 13.6 6.29982 13.55C6.09982 13.5 5.89982 13.4 5.64982 13.35C5.39982 13.25 5.14982 13.15 4.94982 13.05C4.69982 12.9 4.54982 12.7 4.39982 12.5C4.24982 12.25 4.14982 11.95 4.14982 11.55C4.14982 11.2 4.19982 10.9 4.34982 10.65C4.49982 10.4 4.64982 10.2 4.89982 10.05C5.09982 9.9 5.34982 9.75 5.64982 9.7C6.24982 9.55 6.84982 9.55 7.44982 9.75C7.74982 9.85 8.04982 10.05 8.19982 10.15L8.34982 10.25C8.44982 10.3 8.39982 10.45 8.29982 10.55L7.54982 11.3C7.44982 11.4 7.29982 11.4 7.19982 11.3C7.09982 11.25 7.04982 11.15 6.99982 11.15C6.74982 11 6.39982 10.95 6.09982 11C5.99982 11 5.94982 11.05 5.89982 11.1C5.84982 11.15 5.79982 11.2 5.74982 11.25C5.69982 11.3 5.69982 11.35 5.69982 11.45C5.69982 11.6 5.74982 11.65 5.79982 11.7C5.89982 11.8 6.04982 11.85 6.24982 11.95C6.44982 12 6.64982 12.1 6.89982 12.15C7.14982 12.25 7.39982 12.35 7.59982 12.45C7.84982 12.6 7.99982 12.8 8.14982 13C8.29982 13.25 8.39982 13.55 8.39982 13.95C8.39982 14.25 8.34982 14.55 8.19982 14.8ZM16.4998 15.5C16.4998 15.8 16.2498 16 15.9498 16H15.4498C15.1498 16 14.9998 15.8 14.9998 15.5V12.55C14.9998 12.25 14.5998 12.2 14.4998 12.45L13.6498 14.7C13.5998 14.9 13.3998 15 13.1998 15H12.8498C12.6498 15 12.4498 14.85 12.3998 14.7L11.4998 12.45C11.3998 12.2 10.9998 12.25 10.9998 12.55V15.5C10.9998 15.8 10.7498 16 10.4498 16H9.94982C9.64982 16 9.49982 15.8 9.49982 15.5V10C9.49982 9.7 9.69982 9.5 9.94982 9.5H11.2498C11.4498 9.5 11.6498 9.65 11.6998 9.8L12.6998 12.4C12.7998 12.6 13.0998 12.6 13.1498 12.4L14.1498 9.8C14.1998 9.6 14.3998 9.5 14.5998 9.5H15.9498C16.2498 9.5 16.4998 9.7 16.4998 10V15.5V15.5ZM21.7498 14.85C21.5998 15.1 21.4498 15.35 21.1998 15.5C20.9998 15.65 20.7498 15.8 20.4498 15.9C20.1498 16 19.8998 16 19.5998 16C19.1998 16 18.8498 15.95 18.4998 15.8C18.1498 15.65 17.7998 15.45 17.5498 15.15L17.4498 15.05C17.3998 15 17.4498 14.9 17.5498 14.8L18.3498 14.05C18.4498 13.95 18.5498 13.95 18.5998 14C18.6498 14.05 18.6998 14.15 18.6998 14.15C18.7998 14.3 18.9498 14.4 19.0998 14.5C19.3498 14.65 19.6498 14.65 19.8998 14.6C19.9998 14.55 20.0998 14.55 20.1498 14.5C20.1998 14.45 20.2498 14.4 20.2998 14.35C20.3498 14.3 20.3498 14.2 20.3498 14.15C20.3498 13.95 20.2998 13.9 20.2498 13.85C20.1498 13.75 19.9998 13.65 19.7998 13.6C19.5998 13.55 19.3998 13.45 19.1498 13.4C18.8998 13.3 18.6498 13.2 18.4498 13.1C18.1998 12.95 17.9998 12.75 17.8498 12.55C17.6998 12.3 17.5998 12 17.5998 11.6C17.5998 11.25 17.6498 10.95 17.7998 10.7C17.9498 10.45 18.0998 10.25 18.3498 10.1C18.5498 9.95 18.8498 9.8 19.0998 9.75C19.6998 9.6 20.2998 9.6 20.8998 9.8C21.1998 9.9 21.4998 10.1 21.6498 10.25L21.7998 10.4C21.8998 10.45 21.8498 10.6 21.7498 10.7L20.9998 11.45C20.8998 11.55 20.7498 11.55 20.6498 11.45C20.5498 11.4 20.4998 11.3 20.4498 11.3C20.1998 11.15 19.8498 11.1 19.5498 11.15C19.4498 11.15 19.3998 11.2 19.3498 11.25C19.2998 11.3 19.2498 11.35 19.1998 11.4C19.1498 11.45 19.1498 11.55 19.1498 11.6C19.1498 11.75 19.1998 11.8 19.2498 11.85C19.3498 11.95 19.4998 12 19.6998 12.1C19.8998 12.15 20.0998 12.25 20.3498 12.3C20.5998 12.4 20.8498 12.5 21.0498 12.6C21.2998 12.75 21.4498 12.95 21.6498 13.15C21.7998 13.4 21.8998 13.7 21.8998 14.1C21.9498 14.25 21.8998 14.6 21.7498 14.85Z" fill="white"/>
</svg>
