<svg width="44" height="44" viewBox="0 0 44 44" fill="none" xmlns="http://www.w3.org/2000/svg">
<path d="M44 1.8333H18.3333V0H0V18.3333H1.8333V44H16.5V18.3333H18.3333V16.5H44V1.8333ZM3.6667 3.6667H14.6667V14.6667H3.6667V3.6667ZM12.8333 40.3333H5.5V34.8333H7.3333C8.34582 34.8333 9.16661 34.0125 9.16661 33C9.16661 31.9875 8.34582 31.1667 7.3333 31.1667H5.5V27.5H7.3333C8.34582 27.5 9.16661 26.6792 9.16661 25.6667C9.16661 24.6542 8.34582 23.8334 7.3333 23.8334H5.5V18.3334H12.8333V40.3333ZM40.3333 12.8333H18.3333V5.5H23.8333V7.3333C23.8333 8.34582 24.6541 9.16661 25.6666 9.16661C26.6791 9.16661 27.4999 8.34582 27.4999 7.3333V5.5H31.1666V7.3333C31.1666 8.34582 31.9874 9.16661 32.9999 9.16661C34.0124 9.16661 34.8332 8.34582 34.8332 7.3333V5.5H40.3332V12.8333H40.3333Z" fill="white"/>
</svg>
