<svg width="38" height="38" viewBox="0 0 38 38" fill="none" xmlns="http://www.w3.org/2000/svg">
<path d="M2.15918 8.6364C7.341 6.90912 17.8774 3.28185 18.5683 2.59094L36.2728 8.6364L34.1137 19.8637C32.6743 23.0303 29.7092 29.6228 29.3637 30.6591C29.0183 31.6955 24.3258 35.1212 22.0228 36.7046C18.4243 35.9849 11.0546 34.3728 10.3637 33.6819C9.67282 32.9909 5.75766 25.0455 3.88645 21.1591L2.15918 8.6364Z" fill="#FCCD71"/>
<path d="M18.9996 0L0.0683594 8.057L0.115467 9.17999C0.165282 10.3566 1.52977 38 19.0001 38C36.47 38 37.835 10.3571 37.8843 9.17999L37.9319 8.057L18.9996 0ZM19.0001 34.7507C6.37047 34.7507 3.8689 15.0847 3.44114 10.1519L19.0001 3.53035L34.5597 10.1525C34.1357 15.0852 31.6493 34.7507 19.0001 34.7507Z" fill="#333333"/>
</svg>
