<svg width="44" height="44" viewBox="0 0 44 44" fill="none" xmlns="http://www.w3.org/2000/svg">
<path d="M35.3986 14.5202C35.3739 14.2738 35.286 14.0375 35.1433 13.8336C35.0005 13.6297 34.8075 13.4648 34.5824 13.3543L22.6659 7.48829C22.459 7.38633 22.2308 7.33325 21.9994 7.33325C21.768 7.33325 21.5397 7.38633 21.3328 7.48829L9.41636 13.3543C9.19184 13.4654 8.99945 13.6305 8.85702 13.8343C8.71459 14.0382 8.62672 14.2741 8.60157 14.5202C8.58519 14.6771 7.17011 30.3102 21.3954 36.5385C21.5854 36.6229 21.7916 36.6666 22.0001 36.6666C22.2086 36.6666 22.4148 36.6229 22.6049 36.5385C36.8301 30.3102 35.415 14.6786 35.3986 14.5202ZM22.0001 33.5805C11.9173 28.7821 11.4407 18.5414 11.5226 15.5981L22.0001 10.4404L32.4702 15.5952C32.5253 18.5121 31.9816 28.8202 22.0001 33.5805Z" fill="#333333"/>
<path d="M20.4424 23.0058L16.87 19.8573L14.667 21.7988L20.4424 26.8889L29.3337 19.0526L27.1307 17.1111L20.4424 23.0058Z" fill="#333333"/>
</svg>
