<svg width="38" height="38" viewBox="0 0 38 38" fill="none" xmlns="http://www.w3.org/2000/svg">
<path d="M23 19C23 21.2091 21.2091 23 19 23C16.7909 23 15 21.2091 15 19C15 16.7909 16.7909 15 19 15C21.2091 15 23 16.7909 23 19Z" fill="#FCCD71"/>
<path d="M17.48 36.2437V31.4237L14.9287 32.9377L13.68 32.1518V30.4578L17.48 28.1884V25.0207L14.44 26.8835V23.5273L11.4 25.1188V29.6712L10.1438 30.606L9.12004 29.7616V26.7125L4.8838 29.0852L3.04004 28.326V26.4039L7.36064 23.9947L4.56004 22.61V20.8468L6.17352 19.9903L10.1362 22.322L12.8813 20.7381L12.819 20.6887L10.0336 19.0753L12.7452 17.382L10.0267 15.7989L6.06484 18.1184L4.56004 17.382V15.6286L7.25196 14.1254L3.04004 11.8051V9.88305L4.804 9.03641L9.12004 11.4661V8.36837L10.2486 7.51185L11.7253 8.40865L11.6828 13.0485L14.4742 14.6612L14.4993 11.3848L17.48 12.9801V9.81313L13.68 7.54225V5.85961L14.9287 5.06161L17.48 6.57553V1.76625L18.9955 0.76001L20.52 1.76625V6.57553L23.4886 5.03197L25.08 5.95841V7.47233L20.52 9.81313V12.9801L23.56 11.2571V14.703L26.6 13.1191V8.16089L27.7058 7.50273L28.88 8.16013V11.3271L33.32 8.98625L34.96 9.91193V11.7048L30.7838 14.114L33.44 15.599V17.312L32.0492 18.069L28.0007 15.6689L25.2047 17.4519L27.9019 19.1452L25.1211 20.7579L27.9878 22.2718L32.0834 20.0025L33.44 20.9266V22.5606L30.9168 23.9947L34.96 26.4039V28.2963L33.0433 29.0845L28.88 26.8136V29.8194L27.7248 30.6166L26.6 29.8194V25.2579L23.56 23.576V26.7437L20.52 25.02V28.1877L24.32 30.457V32.2499L23.0683 32.9369L20.52 31.4245V36.2444L18.9955 37.24L17.48 36.2437ZM16.3659 19.0699L17.7992 21.28H20.4699L21.6958 19.0699L20.4007 16.72H17.7301L16.3659 19.0699Z" fill="black"/>
</svg>
