<svg width="31" height="24" viewBox="0 0 31 24" fill="none" xmlns="http://www.w3.org/2000/svg">
<path d="M29.6752 23.9061C30.2562 23.9061 30.7273 23.4351 30.7273 22.854V19.3821C30.7273 18.801 30.2562 18.33 29.6752 18.33C29.0942 18.33 28.6231 18.801 28.6231 19.3821V21.8019H23.7834V19.3821C23.7834 18.801 23.3124 18.33 22.7314 18.33H21.9589C23.1139 16.4951 23.7834 14.3246 23.7834 12.0001C23.7834 5.43509 18.4488 0.0942383 11.8917 0.0942383C5.33454 0.0942383 0 5.43509 0 12.0001V22.854C0 23.4351 0.471048 23.9061 1.05207 23.9061H29.6752ZM10.5796 21.802H2.10425V12.0001C2.10425 6.59538 6.49483 2.19838 11.8917 2.19838C17.2886 2.19838 21.6793 6.59538 21.6793 12.0001C21.6793 17.4049 17.2886 21.802 11.8917 21.802H10.5796ZM20.2768 20.4342H21.6793V21.802H18.6339C19.2217 21.3953 19.7718 20.9375 20.2768 20.4342Z" fill="#25C66F"/>
<path d="M17.8393 12.4382C17.8393 8.98641 15.0311 6.17822 11.5793 6.17822C8.12752 6.17822 5.31934 8.98641 5.31934 12.4382C5.31934 15.89 8.12752 18.6982 11.5793 18.6982C15.0311 18.6982 17.8393 15.8899 17.8393 12.4382ZM11.5792 16.5939C9.28771 16.5939 7.42338 14.7296 7.42338 12.4381C7.42338 10.1466 9.28771 8.28227 11.5792 8.28227C13.8707 8.28227 15.7351 10.1466 15.7351 12.4381C15.7351 14.7296 13.8707 16.5939 11.5792 16.5939Z" fill="#25C66F"/>
</svg>
