<svg width="26" height="26" viewBox="0 0 26 26" fill="none" xmlns="http://www.w3.org/2000/svg">
<path d="M24.4055 0.558594H6.97734C5.01719 0.558594 3.41758 2.17344 3.41758 4.16406V13.5027C1.64023 14.7012 0.558594 16.7273 0.558594 18.9211C0.558594 22.5164 3.43789 25.4414 6.97734 25.4414H24.4055C24.9793 25.4414 25.4414 24.9793 25.4414 24.4055V1.59453C25.4414 1.0207 24.9793 0.558594 24.4055 0.558594ZM6.97734 23.3695C4.58047 23.3695 2.63047 21.3738 2.63047 18.9262C2.63047 17.2758 3.51914 15.7727 4.95117 14.9957C5.28633 14.8129 5.49453 14.4625 5.49453 14.0816V4.16406C5.49453 3.32109 6.15977 2.63555 6.97734 2.63555C7.79492 2.63555 8.46016 3.32109 8.46016 4.16406V14.0816C8.46016 14.4625 8.66836 14.8129 9.00352 14.9957C10.4355 15.7676 11.3242 17.2758 11.3242 18.9262C11.3242 21.3738 9.37422 23.3695 6.97734 23.3695ZM23.3695 23.3695H11.6695C12.741 22.2066 13.3961 20.6426 13.3961 18.9262C13.3961 16.7273 12.3145 14.7063 10.532 13.5027V4.16406C10.532 3.61562 10.4102 3.09766 10.1969 2.63555H23.3645V23.3695H23.3695Z" fill="#25C66F"/>
<path d="M15.4324 9.54673H16.8898V11.0499C16.8898 11.6237 17.352 12.0858 17.9258 12.0858C18.4996 12.0858 18.9617 11.6237 18.9617 11.0499V9.54673H20.4191C20.993 9.54673 21.4551 9.08462 21.4551 8.51079C21.4551 7.93696 20.993 7.47485 20.4191 7.47485H18.9617V5.97173C18.9617 5.3979 18.4996 4.93579 17.9258 4.93579C17.352 4.93579 16.8898 5.3979 16.8898 5.97173V7.47485H15.4324C14.8586 7.47485 14.3965 7.93696 14.3965 8.51079C14.3965 9.08462 14.8586 9.54673 15.4324 9.54673Z" fill="#25C66F"/>
<path d="M20.4238 18.926H15.95C15.3762 18.926 14.9141 19.3881 14.9141 19.962C14.9141 20.5358 15.3762 20.9979 15.95 20.9979H20.4238C20.9977 20.9979 21.4598 20.5358 21.4598 19.962C21.4598 19.3932 20.9926 18.926 20.4238 18.926Z" fill="#25C66F"/>
</svg>
