<svg width="20" height="38" viewBox="0 0 20 38" fill="none" xmlns="http://www.w3.org/2000/svg">
<path d="M5.45428 3.99996C4.99973 3.54542 9.54519 1.72723 9.99973 1.72723L14.0906 4.45451L14.5452 20.8181L18.1816 26.2727L17.2725 33.5454L9.99973 36.7272L3.6361 33.5454C2.90882 33.1818 2.42398 28.5454 2.27246 26.2727L5.45428 21.7272C5.60579 15.9697 5.81792 4.3636 5.45428 3.99996Z" fill="#FCCD71"/>
<path d="M9.99966 0.176514C13.2618 0.176514 15.9276 2.72984 16.1076 5.94679L16.1173 6.29392L16.1192 21.2626L16.2698 21.3924C18.012 22.9483 19.1256 25.1023 19.3635 27.4592L19.3994 27.9331L19.4114 28.4118C19.4114 33.6098 15.1976 37.8236 9.99966 37.8236C4.80168 37.8236 0.587891 33.6098 0.587891 28.4118C0.587891 25.8467 1.62243 23.4527 3.39113 21.7098L3.7313 21.3908L3.88013 21.2626L3.88201 6.29416C3.88201 3.14849 6.25621 0.557344 9.31043 0.214907L9.65251 0.186198L9.99966 0.176514ZM9.99966 3.00004C8.27133 3.00004 6.85388 4.33108 6.71646 6.02406L6.70554 6.29424L6.70468 22.6603L6.12442 23.0831C4.43138 24.317 3.41142 26.2779 3.41142 28.4118C3.41142 32.0504 6.36107 35 9.99966 35C13.6382 35 16.5879 32.0504 16.5879 28.4118C16.5879 26.4119 15.692 24.5639 14.1857 23.324L13.8764 23.0843L13.2966 22.6614L13.2938 6.29416C13.2938 4.47487 11.8189 3.00004 9.99966 3.00004ZM9.99966 11.4706C10.7794 11.4706 11.4114 12.1027 11.4114 12.8824L11.4125 23.9217C13.3212 24.5217 14.7055 26.3051 14.7055 28.4118C14.7055 31.0108 12.5986 33.1177 9.99966 33.1177C7.40067 33.1177 5.29377 31.0108 5.29377 28.4118C5.29377 26.3044 6.67905 24.5205 8.58868 23.9211L8.58789 12.8824C8.58789 12.1027 9.21996 11.4706 9.99966 11.4706Z" fill="#333333"/>
</svg>
