<svg width="38" height="38" viewBox="0 0 38 38" fill="none" xmlns="http://www.w3.org/2000/svg">
<g clip-path="url(#clip0_812_1119)">
<path d="M12 13C15.3333 10.8333 22.2 6.4 23 6L34 13L25 19.5L12 13Z" fill="#FCCD71"/>
<path d="M37.9333 12.6348C37.9279 12.6161 37.9163 12.5992 37.9119 12.5805C37.8843 12.4951 37.8496 12.4124 37.8042 12.3332C37.8042 12.3296 37.8024 12.3269 37.8007 12.3243C37.7838 12.2967 37.7642 12.2736 37.7455 12.246C37.7054 12.1837 37.6654 12.1196 37.6182 12.0627C37.5827 12.0217 37.5417 11.987 37.5035 11.9496C37.4652 11.9123 37.4287 11.8722 37.3851 11.8375C37.3299 11.7921 37.265 11.7557 37.2062 11.7192C37.1769 11.7014 37.1511 11.6791 37.1208 11.6631L23.9716 4.7846C23.4991 4.53812 22.9393 4.53367 22.4633 4.77037L19.557 6.22527L11.4932 2.23964C11.0163 2.00205 10.4512 2.01095 9.98051 2.26189L0.877376 7.11778C0.331901 7.40787 -0.00713089 7.97915 -1.21168e-05 8.5976C0.00710666 9.21604 0.357706 9.77842 0.910301 10.0578L14.7189 17.0253L1.77968 24.0133C1.74943 24.0311 1.7254 24.0516 1.69604 24.0685C1.63375 24.1067 1.57057 24.1441 1.51451 24.193C1.47001 24.2295 1.43353 24.2713 1.39349 24.3114C1.357 24.3505 1.31874 24.3826 1.28582 24.4226C1.23598 24.4831 1.19505 24.5517 1.1559 24.6184C1.13988 24.6415 1.12119 24.6647 1.10696 24.6905C1.10518 24.6931 1.10518 24.6949 1.1034 24.6967C1.05624 24.7875 1.01975 24.8809 0.988607 24.9752C0.97081 25.0322 0.961022 25.0936 0.948564 25.1505C0.938776 25.2057 0.924538 25.2564 0.918309 25.3125C0.91208 25.3712 0.91742 25.4326 0.91742 25.4895C0.918309 25.5403 0.91386 25.5848 0.918309 25.6355C0.926318 25.7102 0.944115 25.7814 0.961912 25.8562C0.969921 25.8855 0.9717 25.9176 0.980599 25.9487C1.01263 26.0493 1.05535 26.1525 1.10696 26.2513C1.10785 26.253 1.10874 26.2548 1.10874 26.2566C1.11319 26.2646 1.11941 26.2682 1.12208 26.2753C1.18348 26.3865 1.26179 26.4888 1.349 26.5858C1.3748 26.6143 1.4015 26.641 1.42908 26.6677C1.50294 26.738 1.5848 26.8003 1.67201 26.859C1.69959 26.8777 1.72629 26.8973 1.75566 26.9142C1.76633 26.9195 1.77434 26.9302 1.78502 26.9329L18.2223 35.7361C18.2935 35.7744 18.3691 35.7931 18.4421 35.8224C18.4892 35.8402 18.5337 35.8625 18.5818 35.8767C18.7206 35.9132 18.8621 35.9337 19.0018 35.9337C19.0035 35.9337 19.0053 35.9337 19.0053 35.9337C19.1388 35.9337 19.2785 35.915 19.4138 35.8785C19.4592 35.8678 19.501 35.8474 19.5437 35.8296C19.6131 35.8082 19.6843 35.7868 19.7519 35.7539L36.0868 27.4597C36.9019 27.0441 37.2276 26.0484 36.8112 25.2333C36.7925 25.195 36.7649 25.1639 36.7435 25.1274C36.643 24.6593 36.344 24.2322 35.8786 23.9973L27.6787 19.8613L37.1279 14.5961C37.1315 14.5943 37.1351 14.5925 37.1386 14.5907L37.1555 14.5827C37.1742 14.5694 37.1938 14.5533 37.2134 14.54C37.2819 14.4964 37.3486 14.4528 37.4171 14.3994C37.4536 14.3691 37.4821 14.3309 37.5168 14.2962C37.5604 14.2543 37.6049 14.2152 37.6414 14.1689C37.685 14.112 37.7215 14.0524 37.7579 13.9918C37.7757 13.9616 37.798 13.9367 37.8131 13.9037C37.8149 13.9011 37.8158 13.8975 37.8167 13.8949C37.8558 13.8228 37.8808 13.7471 37.9092 13.6697C37.9751 13.4748 38.0018 13.2755 37.9964 13.0771C37.9964 13.0335 38.0018 12.9917 37.9964 12.9507C37.9866 12.8431 37.9653 12.7381 37.9333 12.6348ZM5.25453 8.53798L10.7912 5.58547L16.0341 8.1767L10.6328 11.252L5.25453 8.53798ZM32.0727 25.7805L19.0258 32.4045L6.06607 25.4646L18.3246 18.8424L32.0727 25.7805ZM24.1148 18.054L19.0658 15.5081L14.1815 13.0433L20.3445 9.53549L23.184 8.11263L32.8665 13.1767L24.1148 18.054Z" fill="#333333"/>
</g>
<defs>
<clipPath id="clip0_812_1119">
<rect width="38" height="38" fill="white"/>
</clipPath>
</defs>
</svg>
