<svg width="38" height="38" viewBox="0 0 38 38" fill="none" xmlns="http://www.w3.org/2000/svg">
<path d="M21.3484 7.04492C18.9941 7.04492 17.0787 8.96029 17.0787 11.3146H19.6405C19.6405 10.3729 20.4067 9.60673 21.3484 9.60673C22.29 9.60673 23.0562 10.3729 23.0562 11.3146C23.0562 12.2563 22.29 13.0224 21.3484 13.0224H3.41577V15.5842H21.3484C23.7027 15.5842 25.618 13.6689 25.618 11.3146C25.6181 8.96029 23.7027 7.04492 21.3484 7.04492Z" fill="black"/>
<path d="M32.0225 7.89893C29.4328 7.89893 27.3259 10.0058 27.3259 12.5956C27.3259 14.479 28.8582 16.0113 30.7416 16.0113C32.625 16.0113 34.1572 14.4789 34.1572 12.5956H31.5954C31.5954 13.0664 31.2124 13.4495 30.7415 13.4495C30.2706 13.4495 29.8875 13.0665 29.8875 12.5956C29.8875 11.4184 30.8452 10.4607 32.0224 10.4607C33.9058 10.4607 35.438 11.9931 35.438 13.8764C35.438 15.7599 33.9057 17.2921 32.0224 17.2921H0V19.8539H32.0225C35.3185 19.8539 38 17.1724 38 13.8764C38 10.5804 35.3185 7.89893 32.0225 7.89893Z" fill="black"/>
<path d="M25.6181 21.5618H3.41577V24.1236H25.618C26.7952 24.1236 27.7528 25.0813 27.7528 26.2584C27.7528 27.4356 26.7951 28.3932 25.618 28.3932C24.4409 28.3932 23.4832 27.4355 23.4832 26.2584H20.9214C20.9214 28.8481 23.0283 30.955 25.618 30.955C28.2077 30.955 30.3147 28.8481 30.3147 26.2584C30.3147 23.6687 28.2078 21.5618 25.6181 21.5618Z" fill="black"/>
</svg>
