<svg width="44" height="44" viewBox="0 0 44 44" fill="none" xmlns="http://www.w3.org/2000/svg">
<path d="M14.85 13.2V2.19995L9.34995 8.24995L7.69995 17.05L12.65 25.85L21.45 29.7C24.2 28.4166 29.81 25.85 30.25 25.85C30.69 25.85 34.1 20.35 35.75 17.6C35.2 14.6666 34.1 8.68995 34.1 8.24995C34.1 7.80995 30.8 4.03328 29.15 2.19995V13.2H14.85Z" fill="#FCCD71"/>
<path d="M14.3551 27.8772V43.9999H29.645V27.8772C34.2585 25.2213 37.3713 20.2401 37.3713 14.5455C37.3713 8.89248 34.2794 3.70857 29.3023 1.01691L27.422 0V11.8617H16.5782V0L14.6979 1.01691C9.72065 3.70857 6.62891 8.89248 6.62891 14.5455C6.62891 20.2401 9.74167 25.2213 14.3551 27.8772ZM27.0967 41.4517H16.9035V29.047C18.4992 29.6095 20.2144 29.9166 22.0001 29.9166C23.7858 29.9166 25.501 29.6094 27.0967 29.047V41.4517ZM14.0299 4.49854V14.41H29.9702V4.49854C33.0073 6.90785 34.8228 10.589 34.8228 14.5455C34.8228 21.6161 29.0705 27.3683 22 27.3683C14.9294 27.3683 9.17722 21.616 9.17722 14.5455C9.17722 10.589 10.9928 6.90785 14.0299 4.49854Z" fill="#333333"/>
</svg>
