<svg width="119" height="71" viewBox="0 0 119 71" fill="none" xmlns="http://www.w3.org/2000/svg">
<path d="M7.4679 70.7712L6.69536 68.5694H2.40346L1.65953 70.7712H0L3.51936 61.0205H5.63669L9.15605 70.7712H7.4679ZM2.86126 67.2255H6.23756L5.83698 66.0245L5.52224 65.1095C5.06444 63.8228 4.7497 62.8791 4.57802 62.2501C4.37774 62.9363 3.97716 64.1087 3.4049 65.71L3.29045 66.0245L2.86126 67.2255Z" fill="#333333"/>
<path d="M21.746 70.7712H19.9148L17.4827 67.0253H15.4512V70.7712H13.8203V61.0205H18.198C19.1423 61.0205 19.8862 61.3065 20.4871 61.8497C21.0879 62.393 21.3741 63.1365 21.3741 64.0229C21.3741 64.7378 21.1738 65.3669 20.7732 65.8816C20.3726 66.3963 19.829 66.7394 19.1709 66.911L21.746 70.7712ZM15.4512 62.3644V65.6814H17.9119C18.4842 65.6814 18.942 65.5384 19.2853 65.2525C19.6287 64.9665 19.7717 64.5662 19.7717 64.0515C19.7717 63.5368 19.6001 63.1365 19.2567 62.822C18.9134 62.536 18.4556 62.393 17.8833 62.393H15.4512V62.3644Z" fill="#333333"/>
<path d="M34.3927 62.2215L33.4485 63.3367C32.9621 62.9078 32.5329 62.6219 32.1323 62.4503C31.7317 62.2787 31.3025 62.1929 30.8447 62.1929C29.9005 62.1929 29.128 62.5361 28.5557 63.1937C27.9835 63.88 27.6973 64.7378 27.6973 65.853C27.6973 66.9682 27.9835 67.8546 28.5557 68.5409C29.128 69.2272 29.8719 69.5703 30.7875 69.5703C31.3311 69.5703 31.7889 69.4559 32.1609 69.2558C32.5615 69.0556 33.0479 68.7125 33.5915 68.2264L34.5644 69.313C33.9349 69.8848 33.334 70.3138 32.7618 70.5711C32.1895 70.8285 31.5314 70.9428 30.8161 70.9428C29.3569 70.9428 28.2124 70.4567 27.354 69.5131C26.4956 68.5695 26.0664 67.3399 26.0664 65.8244C26.0664 64.3375 26.4956 63.108 27.354 62.1643C28.2124 61.2207 29.3855 60.7346 30.8733 60.7346C31.56 60.7346 32.1895 60.849 32.7332 61.0778C33.2482 61.3637 33.8204 61.7068 34.3927 62.2215Z" fill="#333333"/>
<path d="M47.2684 61.0205V70.7712H45.6375V66.3677H40.8878V70.7712H39.2568V61.0205H40.8878V64.9951H45.6375V61.0205H47.2684Z" fill="#333333"/>
<path d="M54.5352 61.0205V70.7712H52.9043V61.0205H54.5352Z" fill="#333333"/>
<path d="M67.1542 61.0205V62.393H64.1499V70.7426H62.519V62.393H59.5146V61.0205H67.1542Z" fill="#333333"/>
<path d="M78.7129 61.0205V62.393H73.6485V65.0523H78.3696V66.4249H73.6485V69.3987H78.856V70.7712H72.0176V61.0205H78.7129Z" fill="#333333"/>
<path d="M91.6466 62.2215L90.7024 63.3367C90.216 62.9078 89.7868 62.6219 89.3862 62.4503C88.9856 62.2787 88.5564 62.1929 88.0986 62.1929C87.1544 62.1929 86.3819 62.5361 85.8096 63.1937C85.2374 63.8514 84.9512 64.7378 84.9512 65.853C84.9512 66.9682 85.2374 67.8546 85.8096 68.5409C86.3819 69.2272 87.1258 69.5703 88.0414 69.5703C88.585 69.5703 89.0428 69.4559 89.4148 69.2558C89.8154 69.0556 90.3018 68.7125 90.8454 68.2264L91.8183 69.313C91.1888 69.8848 90.5879 70.3138 90.0157 70.5711C89.4434 70.8285 88.7853 70.9428 88.07 70.9428C86.6108 70.9428 85.4663 70.4567 84.6079 69.5131C83.7495 68.5695 83.3203 67.3399 83.3203 65.8244C83.3203 64.3375 83.7495 63.108 84.6079 62.1643C85.4663 61.2207 86.6394 60.7346 88.1272 60.7346C88.8139 60.7346 89.4434 60.849 89.9871 61.0778C90.4735 61.3637 91.0457 61.7068 91.6466 62.2215Z" fill="#333333"/>
<path d="M104.093 61.0205H106.639V70.7712H105.066V65.853C105.066 64.8522 105.094 63.6226 105.123 62.2215L104.465 64.2803L103.95 65.8816L102.319 70.7998H100.888L99.2287 65.8816C99.1142 65.4812 98.9711 65.0523 98.8281 64.652L98.0555 62.3073C98.0842 64.3661 98.0841 65.567 98.0841 65.8816V70.7712H96.5391V61.0205H99.1142L100.488 65.1381C100.945 66.4249 101.317 67.6258 101.632 68.741C101.947 67.683 102.319 66.482 102.748 65.1381L104.093 61.0205Z" fill="#F7931E"/>
<path d="M118.856 61.0205V62.393H113.792V65.0523H118.513V66.4249H113.792V69.3987H119V70.7712H112.161V61.0205H118.856Z" fill="#F7931E"/>
<path d="M78.3127 40.3468L59.3139 6.00483L41.1449 40.3468L38.627 39.0028L59.2567 0L80.8306 38.9742L78.3127 40.3468Z" fill="#F7931E"/>
<path d="M59.7428 46.2659L39.4565 9.60786L21.2874 43.9498L18.7695 42.6058L39.3993 3.60303L59.7142 40.2611L79.1136 3.60303L100.688 42.5773L98.1696 43.9498L79.1708 9.60786L59.7428 46.2659Z" fill="#333333"/>
</svg>
